<svg width="340" height="46" viewBox="0 0 340 46" fill="none" xmlns="http://www.w3.org/2000/svg">
<path d="M8.20912 15.5035L13.4775 12.1954L10.5368 6.65289H38.1938L24.3697 32.7308L21.429 27.1786L16.1606 30.4964L24.3697 45.973L48.7305 0.0270386H0L8.20912 15.5035Z" fill="url(#paint0_linear_7_1638)"/>
<path d="M8.20912 15.5035L13.4775 12.1954L10.5368 6.65289H38.1938L24.3697 32.7308L21.429 27.1786L16.1606 30.4964L24.3697 45.973L48.7305 0.0270386H0L8.20912 15.5035Z" fill="url(#paint1_linear_7_1638)"/>
<path d="M57.8322 33V14.0965H60.9959V33H57.8322ZM64.9282 33V14.0965H68.1313L76.9004 27.4208V14.0965H80.1035V33H76.9004L68.1313 19.6757V33H64.9282ZM83.7732 33V14.0965H95.1547V17.2602H86.9369V21.973H93.5794V25.1236H86.9369V33H83.7732ZM105.511 33.3938C103.62 33.3938 102.001 32.9825 100.653 32.1598C99.3057 31.3284 98.2686 30.1732 97.5422 28.6942C96.8246 27.2152 96.4658 25.4999 96.4658 23.5483C96.4658 21.5967 96.8246 19.8813 97.5422 18.4023C98.2686 16.9233 99.3057 15.7725 100.653 14.9498C102.001 14.1184 103.62 13.7027 105.511 13.7027C107.401 13.7027 109.02 14.1184 110.368 14.9498C111.724 15.7725 112.761 16.9233 113.479 18.4023C114.205 19.8813 114.568 21.5967 114.568 23.5483C114.568 25.4999 114.205 27.2152 113.479 28.6942C112.761 30.1732 111.724 31.3284 110.368 32.1598C109.02 32.9825 107.401 33.3938 105.511 33.3938ZM105.511 30.4139C106.78 30.4227 107.834 30.1426 108.674 29.5737C109.523 29.0049 110.158 28.2041 110.578 27.1714C111.007 26.1387 111.221 24.931 111.221 23.5483C111.221 22.1655 111.007 20.9665 110.578 19.9514C110.158 18.9274 109.523 18.131 108.674 17.5622C107.834 16.9933 106.78 16.7001 105.511 16.6826C104.242 16.6739 103.187 16.9539 102.347 17.5228C101.507 18.0916 100.872 18.8924 100.443 19.9251C100.023 20.9578 99.8133 22.1655 99.8133 23.5483C99.8133 24.931 100.023 26.1344 100.443 27.1583C100.863 28.1735 101.494 28.9655 102.334 29.5344C103.183 30.1032 104.242 30.3964 105.511 30.4139ZM116.919 24.7822V22.3012H124.795V24.7822H116.919ZM128.206 33V14.0965H139.588V17.2602H131.37V21.973H138.013V25.1236H131.37V33H128.206ZM142.212 33V14.0965H145.375V33H142.212ZM149.57 33V14.0965H152.734V30.0332H161.083V33H149.57ZM163.307 33V14.0965H166.156L172.693 27.4865L179.23 14.0965H182.079V33H179.125V20.8834L173.323 33H172.063L166.274 20.8834V33H163.307ZM185.767 33V14.0965H197.976V17.0633H188.931V21.7236H196.4V24.6903H188.931V30.0332H197.976V33H185.767ZM207.943 33.3938C206.56 33.3938 205.313 33.1532 204.201 32.6718C203.099 32.1905 202.188 31.5035 201.471 30.6108C200.762 29.7094 200.311 28.6417 200.119 27.4077L203.4 26.9089C203.68 28.0291 204.254 28.8955 205.12 29.5081C205.995 30.1207 207.002 30.427 208.139 30.427C208.813 30.427 209.448 30.322 210.043 30.112C210.638 29.9019 211.119 29.5956 211.487 29.1931C211.863 28.7905 212.051 28.296 212.051 27.7097C212.051 27.4471 212.008 27.2064 211.92 26.9876C211.833 26.7601 211.701 26.5588 211.526 26.3838C211.36 26.2088 211.141 26.0512 210.87 25.9112C210.607 25.7624 210.301 25.6355 209.951 25.5305L205.068 24.0865C204.648 23.964 204.192 23.8021 203.702 23.6008C203.221 23.3907 202.762 23.1063 202.324 22.7475C201.895 22.3799 201.541 21.9161 201.261 21.356C200.989 20.7871 200.854 20.087 200.854 19.2556C200.854 18.0391 201.16 17.0196 201.773 16.1969C202.394 15.3655 203.225 14.7441 204.267 14.3328C205.317 13.9215 206.481 13.7202 207.759 13.729C209.054 13.7377 210.209 13.9609 211.224 14.3985C212.24 14.8273 213.088 15.453 213.771 16.2757C214.454 17.0983 214.935 18.0916 215.215 19.2556L211.815 19.8463C211.675 19.1812 211.404 18.6167 211.001 18.1529C210.607 17.6803 210.122 17.3215 209.544 17.0764C208.975 16.8314 208.367 16.7001 207.719 16.6826C207.089 16.6739 206.503 16.7701 205.96 16.9714C205.426 17.164 204.993 17.444 204.661 17.8116C204.337 18.1792 204.175 18.608 204.175 19.0981C204.175 19.5619 204.315 19.9426 204.595 20.2402C204.875 20.529 205.221 20.7609 205.632 20.9359C206.052 21.1022 206.477 21.2422 206.905 21.356L210.292 22.3012C210.756 22.4237 211.277 22.59 211.854 22.8C212.432 23.01 212.988 23.3032 213.522 23.6795C214.056 24.0559 214.493 24.5503 214.834 25.1629C215.184 25.7755 215.36 26.5544 215.36 27.4996C215.36 28.4798 215.154 29.3418 214.743 30.0857C214.34 30.8208 213.793 31.4335 213.102 31.9236C212.41 32.4136 211.618 32.7812 210.726 33.0263C209.842 33.2713 208.914 33.3938 207.943 33.3938Z" fill="white"/>
<defs>
<linearGradient id="paint0_linear_7_1638" x1="60.6217" y1="7.64263" x2="-22.0673" y2="13.7675" gradientUnits="userSpaceOnUse">
<stop offset="0.100157" stop-color="#059669"/>
<stop offset="0.707994" stop-color="#00D090"/>
</linearGradient>
<linearGradient id="paint1_linear_7_1638" x1="48.29" y1="42.9285" x2="-7.74872" y2="42.1899" gradientUnits="userSpaceOnUse">
<stop offset="0.116616" stop-color="#8B0303"/>
<stop offset="0.931232" stop-color="#F2C36B"/>
</linearGradient>
</defs>
</svg>
