<svg width="143" height="31" viewBox="0 0 143 31" fill="none" xmlns="http://www.w3.org/2000/svg">
<path d="M5.40729 10.9691L8.80628 8.83484L6.90901 5.259H24.7522L15.8335 22.0834L13.9362 18.5014L10.5373 20.6419L15.8335 30.6268L31.5502 0.984253H0.111084L5.40729 10.9691Z" fill="url(#paint0_linear_7_1647)"/>
<path d="M5.40729 10.9691L8.80628 8.83484L6.90901 5.259H24.7522L15.8335 22.0834L13.9362 18.5014L10.5373 20.6419L15.8335 30.6268L31.5502 0.984253H0.111084L5.40729 10.9691Z" fill="url(#paint1_linear_7_1647)"/>
<path d="M37.4222 22.3055V10.1097H39.4633V22.3055H37.4222ZM42.0003 22.3055V10.1097H44.0668L49.7243 18.7061V10.1097H51.7908V22.3055H49.7243L44.0668 13.7092V22.3055H42.0003ZM54.1584 22.3055V10.1097H61.5012V12.1509H56.1995V15.1913H60.4849V17.224H56.1995V22.3055H54.1584ZM68.1825 22.5596C66.9629 22.5596 65.9183 22.2942 65.0488 21.7635C64.1793 21.2271 63.5102 20.4818 63.0416 19.5276C62.5786 18.5734 62.3471 17.4667 62.3471 16.2076C62.3471 14.9485 62.5786 13.8419 63.0416 12.8877C63.5102 11.9335 64.1793 11.191 65.0488 10.6603C65.9183 10.1239 66.9629 9.85567 68.1825 9.85567C69.402 9.85567 70.4466 10.1239 71.3161 10.6603C72.1913 11.191 72.8603 11.9335 73.3233 12.8877C73.792 13.8419 74.0263 14.9485 74.0263 16.2076C74.0263 17.4667 73.792 18.5734 73.3233 19.5276C72.8603 20.4818 72.1913 21.2271 71.3161 21.7635C70.4466 22.2942 69.402 22.5596 68.1825 22.5596ZM68.1825 20.6371C69.0012 20.6427 69.6815 20.4621 70.2236 20.0951C70.7712 19.7281 71.1806 19.2114 71.4516 18.5452C71.7283 17.8789 71.8666 17.0997 71.8666 16.2076C71.8666 15.3155 71.7283 14.542 71.4516 13.8871C71.1806 13.2265 70.7712 12.7126 70.2236 12.3456C69.6815 11.9786 69.0012 11.7895 68.1825 11.7782C67.3638 11.7726 66.6834 11.9532 66.1414 12.3202C65.5993 12.6872 65.19 13.2039 64.9133 13.8701C64.6423 14.5364 64.5068 15.3155 64.5068 16.2076C64.5068 17.0997 64.6423 17.8761 64.9133 18.5367C65.1843 19.1917 65.5909 19.7026 66.1329 20.0696C66.6806 20.4366 67.3638 20.6258 68.1825 20.6371ZM75.5427 17.0038V15.4031H80.6243V17.0038H75.5427ZM82.825 22.3055V10.1097H90.1678V12.1509H84.8661V15.1913H89.1515V17.224H84.8661V22.3055H82.825ZM91.8606 22.3055V10.1097H93.9017V22.3055H91.8606ZM96.6081 22.3055V10.1097H98.6492V20.3915H104.036V22.3055H96.6081ZM105.47 22.3055V10.1097H107.308L111.526 18.7484L115.744 10.1097H117.582V22.3055H115.676V14.4884L111.932 22.3055H111.119L107.384 14.4884V22.3055H105.47ZM119.961 22.3055V10.1097H127.837V12.0238H122.002V15.0304H126.821V16.9445H122.002V20.3915H127.837V22.3055H119.961ZM134.268 22.5596C133.376 22.5596 132.571 22.4044 131.854 22.0938C131.142 21.7833 130.555 21.34 130.092 20.7641C129.635 20.1826 129.344 19.4937 129.22 18.6976L131.337 18.3758C131.518 19.0985 131.888 19.6575 132.447 20.0527C133.011 20.4479 133.661 20.6456 134.395 20.6456C134.829 20.6456 135.239 20.5778 135.623 20.4423C136.007 20.3068 136.317 20.1092 136.554 19.8494C136.797 19.5897 136.919 19.2707 136.919 18.8924C136.919 18.723 136.89 18.5678 136.834 18.4266C136.777 18.2798 136.693 18.1499 136.58 18.037C136.472 17.9241 136.331 17.8225 136.156 17.7321C135.987 17.6361 135.789 17.5543 135.563 17.4865L132.413 16.5549C132.142 16.4758 131.848 16.3714 131.532 16.2415C131.221 16.106 130.925 15.9225 130.643 15.691C130.366 15.4539 130.137 15.1546 129.957 14.7933C129.782 14.4263 129.694 13.9746 129.694 13.4382C129.694 12.6534 129.892 11.9956 130.287 11.4648C130.688 10.9284 131.224 10.5276 131.896 10.2622C132.574 9.99682 133.325 9.86696 134.149 9.87261C134.985 9.87825 135.73 10.0222 136.385 10.3045C137.04 10.5812 137.588 10.9849 138.028 11.5157C138.468 12.0464 138.779 12.6872 138.96 13.4382L136.766 13.8193C136.676 13.3902 136.501 13.026 136.241 12.7268C135.987 12.4219 135.674 12.1904 135.301 12.0323C134.934 11.8742 134.541 11.7895 134.124 11.7782C133.717 11.7726 133.339 11.8347 132.989 11.9645C132.644 12.0887 132.365 12.2694 132.15 12.5066C131.941 12.7437 131.837 13.0204 131.837 13.3366C131.837 13.6358 131.927 13.8814 132.108 14.0734C132.289 14.2597 132.512 14.4093 132.777 14.5223C133.048 14.6295 133.322 14.7199 133.599 14.7933L135.784 15.4031C136.083 15.4821 136.419 15.5894 136.791 15.7249C137.164 15.8604 137.523 16.0496 137.867 16.2923C138.211 16.5351 138.494 16.8541 138.714 17.2494C138.94 17.6446 139.053 18.1471 139.053 18.7569C139.053 19.3893 138.92 19.9454 138.655 20.4254C138.395 20.8996 138.042 21.2949 137.596 21.6111C137.15 21.9272 136.639 22.1644 136.063 22.3225C135.493 22.4806 134.894 22.5596 134.268 22.5596Z" fill="white"/>
<defs>
<linearGradient id="paint0_linear_7_1647" x1="39.2219" y1="5.89754" x2="-14.1259" y2="9.84908" gradientUnits="userSpaceOnUse">
<stop offset="0.100157" stop-color="#059669"/>
<stop offset="0.707994" stop-color="#00D090"/>
</linearGradient>
<linearGradient id="paint1_linear_7_1647" x1="31.2659" y1="28.6626" x2="-4.88809" y2="28.1861" gradientUnits="userSpaceOnUse">
<stop offset="0.116616" stop-color="#8B0303"/>
<stop offset="0.931232" stop-color="#F2C36B"/>
</linearGradient>
</defs>
</svg>
