<svg width="27" height="25" viewBox="0 0 27 25" fill="none" xmlns="http://www.w3.org/2000/svg">
<path d="M1.0521 0.805692C0.914641 0.802881 0.778168 0.839602 0.65061 0.913722C0.523052 0.987842 0.406953 1.09788 0.309061 1.23745C0.211169 1.37701 0.133436 1.54332 0.0803791 1.7267C0.0273223 1.91009 0 2.10689 0 2.30567C0 2.50446 0.0273223 2.70126 0.0803791 2.88465C0.133436 3.06803 0.211169 3.23434 0.309061 3.3739C0.406953 3.51347 0.523052 3.62351 0.65061 3.69763C0.778168 3.77174 0.914641 3.80847 1.0521 3.80565H25.9479C26.0854 3.80847 26.2218 3.77174 26.3494 3.69763C26.4769 3.62351 26.5931 3.51347 26.6909 3.3739C26.7888 3.23434 26.8666 3.06803 26.9196 2.88465C26.9727 2.70126 27 2.50446 27 2.30567C27 2.10689 26.9727 1.91009 26.9196 1.7267C26.8666 1.54332 26.7888 1.37701 26.6909 1.23745C26.5931 1.09788 26.4769 0.987842 26.3494 0.913722C26.2218 0.839602 26.0854 0.802881 25.9479 0.805692H1.0521ZM1.0521 11.3056C0.914641 11.3028 0.778168 11.3395 0.65061 11.4136C0.523052 11.4877 0.406953 11.5978 0.309061 11.7373C0.211169 11.8769 0.133436 12.0432 0.0803791 12.2266C0.0273223 12.41 0 12.6068 0 12.8055C0 13.0043 0.0273223 13.2011 0.0803791 13.3845C0.133436 13.5679 0.211169 13.7342 0.309061 13.8738C0.406953 14.0133 0.523052 14.1234 0.65061 14.1975C0.778168 14.2716 0.914641 14.3083 1.0521 14.3055H25.9479C26.0854 14.3083 26.2218 14.2716 26.3494 14.1975C26.4769 14.1234 26.5931 14.0133 26.6909 13.8738C26.7888 13.7342 26.8666 13.5679 26.9196 13.3845C26.9727 13.2011 27 13.0043 27 12.8055C27 12.6068 26.9727 12.41 26.9196 12.2266C26.8666 12.0432 26.7888 11.8769 26.6909 11.7373C26.5931 11.5978 26.4769 11.4877 26.3494 11.4136C26.2218 11.3395 26.0854 11.3028 25.9479 11.3056H1.0521ZM1.0521 21.8054C0.914641 21.8026 0.778168 21.8393 0.65061 21.9135C0.523052 21.9876 0.406953 22.0976 0.309061 22.2372C0.211169 22.3767 0.133436 22.5431 0.0803791 22.7264C0.0273223 22.9098 0 23.1066 0 23.3054C0 23.5042 0.0273223 23.701 0.0803791 23.8844C0.133436 24.0678 0.211169 24.2341 0.309061 24.3736C0.406953 24.5132 0.523052 24.6232 0.65061 24.6974C0.778168 24.7715 0.914641 24.8082 1.0521 24.8054H25.9479C26.0854 24.8082 26.2218 24.7715 26.3494 24.6974C26.4769 24.6232 26.5931 24.5132 26.6909 24.3736C26.7888 24.2341 26.8666 24.0678 26.9196 23.8844C26.9727 23.701 27 23.5042 27 23.3054C27 23.1066 26.9727 22.9098 26.9196 22.7264C26.8666 22.5431 26.7888 22.3767 26.6909 22.2372C26.5931 22.0976 26.4769 21.9876 26.3494 21.9135C26.2218 21.8393 26.0854 21.8026 25.9479 21.8054H1.0521Z" fill="#EFEFEF"/>
</svg>
